# xmcd
#
# Track frame offsets:
#	150
#	19085
#	32722
#	50685
#	67187
#	79400
#	97125
#	117165
#	134065
#	153550
#	175147
#	193552
#	222353
#
# Disc length: 3923 seconds
#
# Revision: 0
# Processed by: cddbd v1.4PL0 Copyright (c) Steve Scherf et al.
# Submitted via: EasyCDDAExtractor 4.6.9.1
#
DISCID=c40f510d
DTITLE=Meredith Edwards - Reach
DYEAR=2001
DGENRE=Country
TTITLE0=In Any Given Moment
TTITLE1=A Rose Is A Rose
TTITLE2=The Bird Song
TTITLE3=Ready to Fall
TTITLE4=A Beautiful Mess
TTITLE5=You Get to Me
TTITLE6=But I Can't Let You Go
TTITLE7=Slow Learner
TTITLE8=This Is The Heartache
TTITLE9=Reach
TTITLE10=You
TTITLE11=Places In Your Heart
TTITLE12=Enhanced CD Track
EXTD=
EXTT0=
EXTT1=
EXTT2=
EXTT3=
EXTT4=
EXTT5=
EXTT6=
EXTT7=
EXTT8=
EXTT9=
EXTT10=
EXTT11=
EXTT12=
PLAYORDER=
